<svg width="138" height="57" viewBox="0 0 138 57" fill="none" xmlns="http://www.w3.org/2000/svg">
<g filter="url(#filter0_d)">
<path d="M20.9178 47H17.6778C17.0058 47 16.6698 46.664 16.6698 45.992V5.96C16.6698 5.528 16.4298 5.312 15.9498 5.312H6.15778C5.43778 5.312 5.07778 4.976 5.07778 4.304V1.712C5.07778 1.04 5.43778 0.704 6.15778 0.704H32.4378C33.1578 0.704 33.5178 1.04 33.5178 1.712V4.304C33.5178 4.976 33.1578 5.312 32.4378 5.312H22.6458C22.1658 5.312 21.9258 5.528 21.9258 5.96V45.992C21.9258 46.664 21.5898 47 20.9178 47ZM44.5163 47H41.3483C40.6763 47 40.3403 46.664 40.3403 45.992V1.712C40.3403 1.04 40.6763 0.704 41.3483 0.704H44.3003C44.8763 0.704 45.2603 0.895998 45.4523 1.28L65.3243 36.2H65.6123V1.712C65.6123 1.04 65.9483 0.704 66.6203 0.704H69.7883C70.4603 0.704 70.7963 1.04 70.7963 1.712V45.992C70.7963 46.664 70.4603 47 69.7883 47H67.1243C66.5963 47 66.0923 46.688 65.6123 46.064L45.8123 11.504H45.5243V45.992C45.5243 46.664 45.1883 47 44.5163 47ZM82.8243 14.888H78.8643C78.1923 14.888 77.8563 14.576 77.8563 13.952V11.288C77.8563 10.616 78.1923 10.28 78.8643 10.28H82.8243C83.3043 10.28 83.5443 10.064 83.5443 9.632V3.44C83.5443 2.768 83.8803 2.432 84.5523 2.432H87.7923C88.4163 2.432 88.7283 2.768 88.7283 3.44V9.632C88.7283 10.064 88.9923 10.28 89.5203 10.28H97.1523C97.8723 10.28 98.2323 10.616 98.2323 11.288V13.952C98.2323 14.576 97.8723 14.888 97.1523 14.888H89.5203C88.9923 14.888 88.7283 15.104 88.7283 15.536V36.272C88.7283 40.352 90.8403 42.392 95.0643 42.392H97.8723C98.5923 42.392 98.9523 42.728 98.9523 43.4V46.064C98.9523 46.688 98.5923 47 97.8723 47H94.4163C91.1043 47 88.4643 46.088 86.4963 44.264C84.5283 42.392 83.5443 39.8 83.5443 36.488V15.536C83.5443 15.104 83.3043 14.888 82.8243 14.888ZM131.398 47H108.286C107.614 47 107.278 46.664 107.278 45.992V1.712C107.278 1.04 107.614 0.704 108.286 0.704H111.526C112.198 0.704 112.534 1.04 112.534 1.712V41.6C112.534 42.032 112.774 42.248 113.254 42.248H131.398C132.07 42.248 132.406 42.608 132.406 43.328V45.992C132.406 46.664 132.07 47 131.398 47Z" fill="white"/>
</g>
<defs>
<filter id="filter0_d" x="0.0777893" y="0.703995" width="137.328" height="56.296" filterUnits="userSpaceOnUse" color-interpolation-filters="sRGB">
<feFlood flood-opacity="0" result="BackgroundImageFix"/>
<feColorMatrix in="SourceAlpha" type="matrix" values="0 0 0 0 0 0 0 0 0 0 0 0 0 0 0 0 0 0 127 0"/>
<feOffset dy="5"/>
<feGaussianBlur stdDeviation="2.5"/>
<feColorMatrix type="matrix" values="0 0 0 0 0.2 0 0 0 0 0.2 0 0 0 0 0.2 0 0 0 0.25 0"/>
<feBlend mode="normal" in2="BackgroundImageFix" result="effect1_dropShadow"/>
<feBlend mode="normal" in="SourceGraphic" in2="effect1_dropShadow" result="shape"/>
</filter>
</defs>
</svg>
